<svg xmlns="http://www.w3.org/2000/svg" xmlns:xlink="http://www.w3.org/1999/xlink" version="1.1" style="" xml:space="preserve" width="507.988" height="507.988"><rect id="backgroundrect" width="100%" height="100%" x="0" y="0" fill="none" stroke="none"/>




















<g class="currentLayer" style=""><title>Layer 1</title><g id="svg_1" class="" fill="#eb1a1a" fill-opacity="1" stroke="#ffffff" stroke-opacity="1">
	<g id="svg_2" fill="#eb1a1a" fill-opacity="1" stroke="#ffffff" stroke-opacity="1">
		<path d="M229.4,266.302h16.4c0-31.6,25.7-57.4,57.4-57.4v-16.4C262.5,192.602,229.4,225.602,229.4,266.302z" fill="#eb1a1a" id="svg_3" fill-opacity="1" stroke="#ffffff" stroke-opacity="1"/>
	</g>
</g><g id="svg_4" class="" fill="#eb1a1a" fill-opacity="1">
	<g id="svg_5" fill="#eb1a1a" fill-opacity="1">
		<path d="M494.9417989253998,405.4348042984009 l-69.9,-69.9 l-11.6,11.6 l-14.8,-14.8 c11.5,-17.8 18.2,-39 18.2,-61.8 c0,-13 -2.3,-25.5 -6.3,-37.2 c9.6,-19.3 14.5,-37.1 14.5,-52.9 c0,-76.8 -54.4,-139.3 -121.2,-139.3 c-35.3,0 -68.9,17.9 -91.8,48.5 c-22.9,-30.6 -56.5,-48.5 -91.8,-48.5 c-66.9,0 -121.3,62.5 -121.3,139.3 c0,101.4 213,255.9 213,255.9 s32.8,-23.7 67.4,-53.4 c36.9,7.1 66.7,-4.5 84.5,-15.9 l14.8,14.8 l-11.6,11.6 l69.9,69.9 c8.3,9.9 36.9,21.1 57.9,0 C510.9417989253998,447.4348042984009 510.9417989253998,421.4348042984009 494.9417989253998,405.4348042984009 zM120.14179892539978,57.53480429840088 c62.8,0 91.8,62.3 91.8,62.3 c21.8,-42.2 58.4,-62.3 91.8,-62.3 c57.8,0 104.8,55.1 104.8,122.9 c0,9.9 -2.5,21 -7.2,33 c-19.8,-34.4 -56.9,-57.6 -99.3,-57.6 c-26.7,0 -51.2,9.2 -70.7,24.6 h-49.5 l-9,22.6 l-16,-64.1 l-32.2,72.5 l-23.6,-109.9 l-49.3,78.9 H15.341798925399779 C15.341798925399779,112.63480429840088 62.34179892539978,57.53480429840088 120.14179892539978,57.53480429840088 zM211.94179892539978,416.0348042984009 c-28.6,-21.4 -176.4,-135.1 -194.7,-219.2 h43.6 l32.7,-52.2 l25.6,119.6 l33.3,-75 l16.8,67 l23.7,-59.3 h21.4 c-16.8,20 -27,45.7 -27,73.7 c0,48.6 30.4,90.2 73.2,106.8 C238.54179892539977,395.9348042984009 220.2417989253998,409.83480429840085 211.94179892539978,416.0348042984009 zM302.0417989253998,368.83480429840085 c-54.2,0 -98.3,-44.1 -98.3,-98.3 s44.1,-98.3 98.3,-98.3 s98.3,44.1 98.3,98.3 S356.2417989253998,368.83480429840085 302.0417989253998,368.83480429840085 zM377.14179892539977,357.13480429840087 c4.1,-3.6 8,-7.5 11.6,-11.6 l13.1,13.1 l-11.6,11.6 L377.14179892539977,357.13480429840087 zM483.34179892539976,451.83480429840085 c-9.6,9.6 -25.2,9.6 -34.8,0 l-58.4,-58.3 l34.8,-34.8 l58.4,58.4 C492.9417989253998,426.63480429840087 492.9417989253998,442.2348042984009 483.34179892539976,451.83480429840085 z" fill="#eb1a1a" id="svg_6" fill-opacity="1"/>
	</g>
</g><g id="svg_7" class="" fill="#eb1a1a" fill-opacity="1">
	<g id="svg_8" fill="#eb1a1a" fill-opacity="1">
		<rect x="415.4580078125" y="378.6000061035156" transform="matrix(0.7071,-0.7071,0.7071,0.7071,-149.422,412.8624) " width="16.399999618530273" height="16.399999618530273" fill="#eb1a1a" id="svg_9" fill-opacity="1"/>
	</g>
</g><g id="svg_10" class="" fill="#eb1a1a" fill-opacity="1">
	<g id="svg_11" fill="#eb1a1a" fill-opacity="1">
		<rect x="438.6919860839844" y="401.77099609375" transform="matrix(0.7071,-0.7071,0.7071,0.7071,-159.0011,436.0782) " width="16.399999618530273" height="16.399999618530273" fill="#eb1a1a" id="svg_12" fill-opacity="1"/>
	</g>
</g><g id="svg_13" class="" fill="#eb1a1a" fill-opacity="1">
	<g id="svg_14" fill="#eb1a1a" fill-opacity="1">
		<rect x="461.9079895019531" y="424.9549865722656" transform="matrix(0.707,-0.7072,0.7072,0.707,-168.5917,459.3755) " width="16.399999618530273" height="16.399999618530273" fill="#eb1a1a" id="svg_15" fill-opacity="1"/>
	</g>
</g><g id="svg_16">
</g><g id="svg_17">
</g><g id="svg_18">
</g><g id="svg_19">
</g><g id="svg_20">
</g><g id="svg_21">
</g><g id="svg_22">
</g><g id="svg_23">
</g><g id="svg_24">
</g><g id="svg_25">
</g><g id="svg_26">
</g><g id="svg_27">
</g><g id="svg_28">
</g><g id="svg_29">
</g><g id="svg_30">
</g></g></svg>